<svg width="36" height="36" viewBox="0 0 36 36" fill="none" xmlns="http://www.w3.org/2000/svg">
<rect width="36" height="36" fill="#D6BBD3"/>
<path d="M26.9985 0.00773447L22.3302 0.000244141C17.0854 0.000244141 13.6961 3.47763 13.6961 8.8598V12.9447H9.00224C8.59664 12.9447 8.26819 13.2735 8.26819 13.6791V19.5976C8.26819 20.0032 8.59701 20.3316 9.00224 20.3316H13.6961V35.2658C13.6961 35.6714 14.0245 35.9999 14.4301 35.9999H20.5542C20.9598 35.9999 21.2883 35.6711 21.2883 35.2658V20.3316H26.7764C27.182 20.3316 27.5105 20.0032 27.5105 19.5976L27.5127 13.6791C27.5127 13.4843 27.4352 13.2978 27.2977 13.16C27.1603 13.0222 26.973 12.9447 26.7783 12.9447H21.2883V9.48187C21.2883 7.81752 21.6849 6.97262 23.8529 6.97262L26.9978 6.97149C27.403 6.97149 27.7314 6.64267 27.7314 6.23744V0.741787C27.7314 0.336934 27.4034 0.0084835 26.9985 0.00773447Z" fill="white"/>
</svg>
