<svg width="96" height="96" viewBox="0 0 96 96" fill="none" xmlns="http://www.w3.org/2000/svg">
<rect x="0.0625" y="0.115723" width="95" height="95" rx="47.5" fill="#BA9FB7"/>
<path d="M38.1079 42.8237C38.1079 41.9942 37.4292 41.3154 36.5997 41.3154H24.5083C23.6787 41.3154 23 41.9942 23 42.8237C23 43.6533 23.6787 44.332 24.5083 44.332H36.5997C37.4292 44.332 38.1079 43.6533 38.1079 42.8237Z" fill="white"/>
<path d="M71.1393 41.3154H59.048C58.2184 41.3154 57.5397 41.9942 57.5397 42.8237C57.5397 43.6533 58.2184 44.332 59.048 44.332H71.1393C71.9689 44.332 72.6476 43.6533 72.6476 42.8237C72.6476 41.9942 71.9815 41.3154 71.1393 41.3154Z" fill="white"/>
<path d="M47.8238 33.1079C48.6533 33.1079 49.3321 32.4292 49.3321 31.5997V19.5083C49.3321 18.6787 48.6533 18 47.8238 18C46.9942 18 46.3155 18.6787 46.3155 19.5083V31.5997C46.3155 32.4292 46.9942 33.1079 47.8238 33.1079Z" fill="white"/>
<path d="M55.7549 36.4012C56.1445 36.4012 56.5216 36.2504 56.8233 35.9613L65.3828 27.4018C65.9735 26.8111 65.9735 25.8558 65.3828 25.2651C64.792 24.6743 63.8368 24.6743 63.246 25.2651L54.6865 33.8246C54.0958 34.4153 54.0958 35.3706 54.6865 35.9613C54.9882 36.2504 55.3778 36.4012 55.7549 36.4012Z" fill="white"/>
<path d="M38.8244 35.9613C39.1135 36.2504 39.5031 36.4012 39.8928 36.4012C40.2824 36.4012 40.6595 36.2504 40.9611 35.9613C41.5519 35.3706 41.5519 34.4153 40.9611 33.8246L32.4016 25.2651C31.8109 24.6743 30.8556 24.6743 30.2649 25.2651C29.6742 25.8558 29.6742 26.8111 30.2649 27.4018L38.8244 35.9613Z" fill="white"/>
<path d="M65.9483 52.3386C64.8046 51.3582 63.3591 50.8178 61.8886 50.8178H60.5185H55.5915H53.2536V44.7218C53.2536 41.8058 52.3864 39.6816 50.6644 38.4121C47.9495 36.4262 44.2668 37.5449 44.1034 37.5952C43.475 37.7963 43.0476 38.3744 43.0476 39.028V46.3809C43.0476 48.6182 41.9792 50.5161 39.8551 52.037C38.2462 53.1933 36.5997 53.7212 36.386 53.784L36.2352 53.8218C35.6696 53.1807 34.84 52.7785 33.9099 52.7785H28.1785C26.4691 52.7785 25.0739 54.1737 25.0739 55.8831V74.6863C25.0739 76.3957 26.4691 77.7909 28.1785 77.7909H33.9351C34.6892 77.7909 35.3931 77.5143 35.921 77.0619C37.0773 78.1931 38.6484 78.8844 40.3453 78.8844H46.0642H46.6549H58.3567C60.1666 78.8844 61.7629 78.4445 62.9821 77.6275C64.5406 76.5717 65.5084 74.9 65.7849 72.7633L68.1102 58.3089C68.4747 56.0716 67.6452 53.784 65.9483 52.3386ZM34.0231 74.6863C34.0231 74.7366 33.9853 74.7743 33.9351 74.7743H28.1785C28.1282 74.7743 28.0905 74.7366 28.0905 74.6863V55.8831C28.0905 55.8328 28.1282 55.7951 28.1785 55.7951H33.9351C33.9853 55.7951 34.0231 55.8328 34.0231 55.8831V74.6863ZM65.1314 57.8438L62.8061 72.3233C62.8061 72.3359 62.8061 72.3611 62.7935 72.3862C62.693 73.2535 62.3662 75.8804 58.3567 75.8804H46.6549H46.0642H40.3453C38.7364 75.8804 37.3287 74.6738 37.0773 73.0775C37.0648 73.0146 37.0522 72.9518 37.0396 72.9015V56.7378L37.1276 56.7126C37.1527 56.7126 37.1653 56.7001 37.1904 56.7001C37.2784 56.6749 39.4152 56.0716 41.5393 54.5508C44.493 52.4517 46.0642 49.6237 46.0642 46.3809V40.2724C46.8937 40.1844 48.0375 40.2221 48.8796 40.838C49.7846 41.5041 50.2371 42.8113 50.2371 44.7092V52.3135C50.2371 53.143 50.9158 53.8218 51.7454 53.8218H55.5915H60.5185H61.8886C62.6427 53.8218 63.3843 54.1108 63.9876 54.6136C64.8925 55.3929 65.3199 56.6246 65.1314 57.8438Z" fill="white"/>
</svg>
