<svg width="95" height="95" viewBox="0 0 95 95" fill="none" xmlns="http://www.w3.org/2000/svg">
<rect width="95" height="95" rx="47.5" fill="#BA9FB7"/>
<path d="M74.9222 39.3475C73.3426 37.6363 71.0927 36.6909 68.5916 36.6909H62.5722V33.4358C62.5722 32.646 61.926 31.9998 61.1361 31.9998H32.463C31.6732 31.9998 31.0269 32.646 31.0269 33.4358V38.4381H25.4383C24.6485 38.4381 24.0023 39.0843 24.0023 39.8741C24.0023 40.6639 24.6485 41.3102 25.4383 41.3102H32.4271C32.4391 41.3102 32.451 41.3102 32.463 41.3102C32.463 41.3102 32.463 41.3102 32.475 41.3102C33.2648 41.3102 33.911 40.6639 33.911 39.8741V34.8719H59.7121V38.1269V57.382H46.1892C46.1294 57.382 46.0696 57.382 46.0097 57.3939C45.2917 55.6228 43.5565 54.3662 41.534 54.3662C39.4996 54.3662 37.7644 55.6348 37.0583 57.4179C36.9506 57.3939 36.8549 57.382 36.7472 57.382H33.911V52.3677C33.911 51.5779 33.2648 50.9317 32.475 50.9317C32.451 50.9317 32.4271 50.9317 32.4032 50.9317C32.3792 50.9317 32.3673 50.9317 32.3433 50.9317H25.4383C24.6485 50.9317 24.0023 51.5779 24.0023 52.3677C24.0023 53.1576 24.6485 53.8038 25.4383 53.8038H31.0269V58.806C31.0269 59.5959 31.6732 60.2421 32.463 60.2421H36.7352C36.7711 60.2421 36.7951 60.2421 36.831 60.2421C37.3097 62.3962 39.2364 63.9998 41.534 63.9998C43.8317 63.9998 45.7465 62.3962 46.2371 60.2421H61.1481H63.4458C63.9364 62.3842 65.8512 63.9998 68.1488 63.9998C70.4465 63.9998 72.3613 62.3962 72.8519 60.2421H76.0591C76.8489 60.2421 77.4951 59.5959 77.4951 58.806V46.8748C77.4951 43.7754 76.5976 41.1665 74.9222 39.3475ZM41.534 61.1396C40.457 61.1396 39.5834 60.266 39.5834 59.189C39.5834 58.1119 40.457 57.2383 41.534 57.2383C42.6111 57.2383 43.4847 58.1119 43.4847 59.189C43.4847 60.266 42.6111 61.1396 41.534 61.1396ZM68.1488 61.1396C67.0718 61.1396 66.1982 60.266 66.1982 59.189C66.1982 58.1119 67.0718 57.2383 68.1488 57.2383C69.2259 57.2383 70.0995 58.1119 70.0995 59.189C70.0875 60.266 69.2139 61.1396 68.1488 61.1396ZM74.623 57.382H72.6126C71.8945 55.6228 70.1593 54.3662 68.1488 54.3662C66.1384 54.3662 64.4031 55.6108 63.6851 57.382H62.5842V39.563H68.6036C72.3732 39.563 74.623 42.3034 74.623 46.8868V57.382Z" fill="white"/>
<path d="M43.6642 48.8136C43.1017 49.376 43.1017 50.2855 43.6642 50.848C43.9394 51.1232 44.3104 51.2668 44.6814 51.2668C45.0524 51.2668 45.4114 51.1232 45.6986 50.848L49.3964 47.1501L49.4084 47.1382C49.4323 47.1023 49.4682 47.0783 49.4921 47.0424C49.5041 47.0185 49.5161 47.0065 49.528 46.9826C49.54 46.9587 49.552 46.9467 49.5759 46.9228C49.5879 46.8988 49.5998 46.8749 49.6118 46.851C49.6238 46.827 49.6357 46.8151 49.6477 46.7911C49.6597 46.7672 49.6716 46.7432 49.6836 46.7193C49.6956 46.6954 49.7076 46.6834 49.7076 46.6595C49.7195 46.6355 49.7195 46.6116 49.7315 46.5877C49.7434 46.5637 49.7435 46.5398 49.7554 46.5278C49.7674 46.5039 49.7674 46.48 49.7674 46.456C49.7674 46.4321 49.7794 46.4082 49.7794 46.3842C49.7794 46.3603 49.7913 46.3364 49.7913 46.3005C49.7913 46.2765 49.8033 46.2646 49.8033 46.2406C49.8153 46.1449 49.8153 46.0492 49.8033 45.9534C49.8033 45.9295 49.8033 45.9175 49.7913 45.8936C49.7913 45.8697 49.7794 45.8457 49.7794 45.8098C49.7794 45.7859 49.7674 45.7619 49.7674 45.738C49.7674 45.7141 49.7554 45.6901 49.7554 45.6662C49.7435 45.6423 49.7434 45.6183 49.7315 45.6064C49.7195 45.5824 49.7195 45.5585 49.7076 45.5346C49.6956 45.5106 49.6836 45.4987 49.6836 45.4747C49.6716 45.4508 49.6597 45.4269 49.6477 45.4029C49.6357 45.379 49.6238 45.367 49.6118 45.3431C49.5998 45.3192 49.5879 45.2952 49.5759 45.2713C49.5639 45.2474 49.552 45.2354 49.528 45.2115C49.5161 45.1875 49.5041 45.1756 49.4921 45.1516C49.4682 45.1157 49.4323 45.0918 49.4084 45.0559L49.3964 45.0439L45.8781 41.5256C45.3156 40.9631 44.4061 40.9631 43.8437 41.5256C43.2812 42.0881 43.2812 42.9976 43.8437 43.56L44.9087 44.6251H20.4361C19.6462 44.6251 19 45.2713 19 46.0611C19 46.851 19.6462 47.4972 20.4361 47.4972H44.8968L43.6642 48.8136Z" fill="white"/>
</svg>
